<mxfile host="app.diagrams.net" modified="2023-04-30T09:27:37.676Z" agent="Mozilla/5.0 (Windows NT 10.0; Win64; x64; rv:109.0) Gecko/20100101 Firefox/112.0" etag="rr771nBu24n4VDPJ2TCU" version="21.2.3" type="google">
  <diagram name="Pagina-1" id="WC7J80OI-JFcf6Vq8mLG">
    <mxGraphModel grid="1" page="1" gridSize="10" guides="1" tooltips="1" connect="1" arrows="1" fold="1" pageScale="1" pageWidth="1500" pageHeight="900" math="0" shadow="0">
      <root>
        <mxCell id="0" />
        <mxCell id="1" parent="0" />
        <mxCell id="MNOEPfRIzQuodUUQOCgr-1" value="" style="rounded=0;whiteSpace=wrap;html=1;strokeColor=#000000;fillColor=#FFF1E0;" vertex="1" parent="1">
          <mxGeometry x="330" y="390" width="800" height="60" as="geometry" />
        </mxCell>
        <mxCell id="MNOEPfRIzQuodUUQOCgr-2" value="" style="rounded=0;whiteSpace=wrap;html=1;strokeColor=#000000;fillColor=#D9F1FF;" vertex="1" parent="1">
          <mxGeometry x="330" y="450" width="800" height="40" as="geometry" />
        </mxCell>
        <mxCell id="MNOEPfRIzQuodUUQOCgr-22" value="" style="ellipse;shape=cloud;whiteSpace=wrap;html=1;rotation=-180;strokeColor=#000000;fillColor=#fad7ac;" vertex="1" parent="1">
          <mxGeometry x="700" y="351" width="120" height="80" as="geometry" />
        </mxCell>
        <mxCell id="MNOEPfRIzQuodUUQOCgr-21" value="" style="ellipse;shape=cloud;whiteSpace=wrap;html=1;rotation=-180;strokeColor=#000000;fillColor=#fad7ac;" vertex="1" parent="1">
          <mxGeometry x="450" y="363" width="120" height="80" as="geometry" />
        </mxCell>
        <mxCell id="MNOEPfRIzQuodUUQOCgr-20" value="" style="ellipse;shape=cloud;whiteSpace=wrap;html=1;strokeColor=#000000;fillColor=#fad7ac;" vertex="1" parent="1">
          <mxGeometry x="960" y="343" width="120" height="80" as="geometry" />
        </mxCell>
        <mxCell id="MNOEPfRIzQuodUUQOCgr-19" value="" style="ellipse;shape=cloud;whiteSpace=wrap;html=1;strokeColor=#000000;fillColor=#fad7ac;" vertex="1" parent="1">
          <mxGeometry x="380" y="343" width="120" height="80" as="geometry" />
        </mxCell>
        <mxCell id="MNOEPfRIzQuodUUQOCgr-3" value="" style="rounded=0;whiteSpace=wrap;html=1;strokeColor=#000000;fillColor=#dae8fc;" vertex="1" parent="1">
          <mxGeometry x="330" y="350" width="800" height="40" as="geometry" />
        </mxCell>
        <mxCell id="MNOEPfRIzQuodUUQOCgr-4" value="" style="endArrow=none;html=1;rounded=0;exitX=0;exitY=0.5;exitDx=0;exitDy=0;entryX=1;entryY=0.5;entryDx=0;entryDy=0;strokeWidth=3;dashed=1;dashPattern=8 8;strokeColor=#000000;" edge="1" parent="1" source="MNOEPfRIzQuodUUQOCgr-3" target="MNOEPfRIzQuodUUQOCgr-3">
          <mxGeometry width="50" height="50" relative="1" as="geometry">
            <mxPoint x="610" y="450" as="sourcePoint" />
            <mxPoint x="660" y="400" as="targetPoint" />
          </mxGeometry>
        </mxCell>
        <mxCell id="MNOEPfRIzQuodUUQOCgr-5" value="" style="rounded=0;whiteSpace=wrap;html=1;strokeColor=#000000;fillColor=#B0CFFC;" vertex="1" parent="1">
          <mxGeometry x="330" y="150" width="800" height="200" as="geometry" />
        </mxCell>
        <mxCell id="MNOEPfRIzQuodUUQOCgr-8" value="" style="triangle;whiteSpace=wrap;html=1;rotation=-90;strokeColor=#000000;fillColor=#bac8d3;" vertex="1" parent="1">
          <mxGeometry x="663" y="473.76" width="134.38" height="215.37" as="geometry" />
        </mxCell>
        <mxCell id="MNOEPfRIzQuodUUQOCgr-7" value="" style="rounded=1;whiteSpace=wrap;html=1;strokeColor=#000000;fillColor=#476AA6;" vertex="1" parent="1">
          <mxGeometry x="713" y="490" width="35" height="23" as="geometry" />
        </mxCell>
        <mxCell id="MNOEPfRIzQuodUUQOCgr-10" value="" style="rounded=0;whiteSpace=wrap;html=1;strokeColor=#000000;fillColor=#9AADB8;" vertex="1" parent="1">
          <mxGeometry x="620.5" y="646" width="220" height="60" as="geometry" />
        </mxCell>
        <mxCell id="MNOEPfRIzQuodUUQOCgr-11" value="" style="rounded=0;whiteSpace=wrap;html=1;strokeColor=#000000;fillColor=#9AADB8;" vertex="1" parent="1">
          <mxGeometry x="620.5" y="716" width="220" height="60" as="geometry" />
        </mxCell>
        <mxCell id="MNOEPfRIzQuodUUQOCgr-12" value="" style="rounded=0;whiteSpace=wrap;html=1;strokeColor=#000000;fillColor=#1A1A1A;" vertex="1" parent="1">
          <mxGeometry x="620" y="706" width="220" height="10" as="geometry" />
        </mxCell>
        <mxCell id="MNOEPfRIzQuodUUQOCgr-13" value="" style="rounded=0;whiteSpace=wrap;html=1;strokeColor=#000000;fillColor=#bac8d3;" vertex="1" parent="1">
          <mxGeometry x="600" y="776" width="260" height="30" as="geometry" />
        </mxCell>
        <mxCell id="MNOEPfRIzQuodUUQOCgr-14" value="&lt;div style=&quot;font-size: 26px;&quot;&gt;&lt;font style=&quot;font-size: 26px;&quot;&gt;Scintillator&lt;/font&gt;&lt;/div&gt;&lt;div style=&quot;font-size: 26px;&quot;&gt;&lt;font style=&quot;font-size: 26px;&quot;&gt;&lt;br&gt;&lt;/font&gt;&lt;/div&gt;" style="text;html=1;strokeColor=none;fillColor=none;align=center;verticalAlign=middle;whiteSpace=wrap;rounded=0;" vertex="1" parent="1">
          <mxGeometry x="1005" y="133" width="60" height="30" as="geometry" />
        </mxCell>
        <mxCell id="MNOEPfRIzQuodUUQOCgr-15" value="&lt;font style=&quot;font-size: 26px;&quot;&gt;Focal plane&lt;/font&gt;&lt;div style=&quot;font-size: 26px;&quot;&gt;&lt;font style=&quot;font-size: 26px;&quot;&gt;&lt;br&gt;&lt;/font&gt;&lt;/div&gt;" style="text;html=1;strokeColor=none;fillColor=none;align=center;verticalAlign=middle;whiteSpace=wrap;rounded=0;" vertex="1" parent="1">
          <mxGeometry x="900" y="333" width="270" height="30" as="geometry" />
        </mxCell>
        <mxCell id="MNOEPfRIzQuodUUQOCgr-17" value="&lt;font style=&quot;font-size: 26px;&quot;&gt;Imaging plate&lt;br&gt;&lt;/font&gt;" style="text;html=1;strokeColor=none;fillColor=none;align=center;verticalAlign=middle;whiteSpace=wrap;rounded=0;" vertex="1" parent="1">
          <mxGeometry x="900" y="495.2" width="270" height="30" as="geometry" />
        </mxCell>
        <mxCell id="MNOEPfRIzQuodUUQOCgr-24" value="" style="ellipse;whiteSpace=wrap;html=1;strokeColor=#000000;fillColor=#e1d5e7;" vertex="1" parent="1">
          <mxGeometry x="1030" y="392" width="20" height="13" as="geometry" />
        </mxCell>
        <mxCell id="MNOEPfRIzQuodUUQOCgr-25" value="" style="ellipse;whiteSpace=wrap;html=1;strokeColor=#000000;fillColor=#e1d5e7;" vertex="1" parent="1">
          <mxGeometry x="760" y="396.5" width="20" height="13" as="geometry" />
        </mxCell>
        <mxCell id="MNOEPfRIzQuodUUQOCgr-26" value="" style="ellipse;whiteSpace=wrap;html=1;strokeColor=#000000;fillColor=#e1d5e7;" vertex="1" parent="1">
          <mxGeometry x="520" y="396.5" width="20" height="13" as="geometry" />
        </mxCell>
        <mxCell id="MNOEPfRIzQuodUUQOCgr-27" value="" style="ellipse;whiteSpace=wrap;html=1;strokeColor=#000000;fillColor=#e1d5e7;" vertex="1" parent="1">
          <mxGeometry x="432" y="398.5" width="20" height="13" as="geometry" />
        </mxCell>
        <mxCell id="MNOEPfRIzQuodUUQOCgr-28" value="" style="ellipse;whiteSpace=wrap;html=1;aspect=fixed;strokeColor=none;fillColor=#66FF66;" vertex="1" parent="1">
          <mxGeometry x="534" y="393.5" width="10" height="10" as="geometry" />
        </mxCell>
        <mxCell id="MNOEPfRIzQuodUUQOCgr-30" value="" style="endArrow=none;html=1;rounded=0;strokeWidth=2;" edge="1" parent="1">
          <mxGeometry width="50" height="50" relative="1" as="geometry">
            <mxPoint x="540" y="398.5" as="sourcePoint" />
            <mxPoint x="580" y="363" as="targetPoint" />
          </mxGeometry>
        </mxCell>
        <mxCell id="idJGbWFFebsAsp7hMpdy-1" value="" style="ellipse;whiteSpace=wrap;html=1;aspect=fixed;strokeColor=none;gradientColor=#B0CFFC;gradientDirection=radial;fillColor=#FFFF33;" vertex="1" parent="1">
          <mxGeometry x="537.5" y="223" width="80" height="80" as="geometry" />
        </mxCell>
        <mxCell id="MNOEPfRIzQuodUUQOCgr-36" value="" style="group" connectable="0" vertex="1" parent="1">
          <mxGeometry x="540" y="233" width="50" height="130" as="geometry" />
        </mxCell>
        <mxCell id="MNOEPfRIzQuodUUQOCgr-34" value="" style="group" connectable="0" vertex="1" parent="MNOEPfRIzQuodUUQOCgr-36">
          <mxGeometry y="100" width="40" height="30" as="geometry" />
        </mxCell>
        <mxCell id="MNOEPfRIzQuodUUQOCgr-31" value="" style="endArrow=none;html=1;rounded=0;strokeWidth=2;" edge="1" parent="MNOEPfRIzQuodUUQOCgr-34">
          <mxGeometry width="50" height="50" relative="1" as="geometry">
            <mxPoint x="40" y="30" as="sourcePoint" />
            <mxPoint x="20" y="20" as="targetPoint" />
          </mxGeometry>
        </mxCell>
        <mxCell id="MNOEPfRIzQuodUUQOCgr-32" value="" style="endArrow=none;html=1;rounded=0;strokeWidth=2;" edge="1" parent="MNOEPfRIzQuodUUQOCgr-34">
          <mxGeometry width="50" height="50" relative="1" as="geometry">
            <mxPoint x="20" y="20" as="sourcePoint" />
            <mxPoint x="20" y="10" as="targetPoint" />
          </mxGeometry>
        </mxCell>
        <mxCell id="MNOEPfRIzQuodUUQOCgr-33" value="" style="endArrow=none;html=1;rounded=0;strokeWidth=2;" edge="1" parent="MNOEPfRIzQuodUUQOCgr-34">
          <mxGeometry width="50" height="50" relative="1" as="geometry">
            <mxPoint as="sourcePoint" />
            <mxPoint x="20" y="10" as="targetPoint" />
          </mxGeometry>
        </mxCell>
        <mxCell id="MNOEPfRIzQuodUUQOCgr-35" value="" style="endArrow=none;html=1;rounded=0;strokeWidth=2;" edge="1" parent="MNOEPfRIzQuodUUQOCgr-36">
          <mxGeometry width="50" height="50" relative="1" as="geometry">
            <mxPoint y="100" as="sourcePoint" />
            <mxPoint x="40" y="30" as="targetPoint" />
          </mxGeometry>
        </mxCell>
        <mxCell id="MNOEPfRIzQuodUUQOCgr-39" value="&lt;font style=&quot;font-size: 26px;&quot;&gt;Immersion oil&lt;br&gt;&lt;/font&gt;" style="text;html=1;strokeColor=none;fillColor=none;align=center;verticalAlign=middle;whiteSpace=wrap;rounded=0;" vertex="1" parent="1">
          <mxGeometry x="490" y="503" width="175" height="30" as="geometry" />
        </mxCell>
        <mxCell id="MNOEPfRIzQuodUUQOCgr-43" value="&lt;font style=&quot;font-size: 26px;&quot;&gt;Objective&lt;br&gt;&lt;/font&gt;" style="text;html=1;strokeColor=none;fillColor=none;align=center;verticalAlign=middle;whiteSpace=wrap;rounded=0;" vertex="1" parent="1">
          <mxGeometry x="595" y="661" width="270" height="30" as="geometry" />
        </mxCell>
        <mxCell id="MNOEPfRIzQuodUUQOCgr-44" value="&lt;font style=&quot;font-size: 26px;&quot;&gt;Cell medium&lt;br&gt;&lt;/font&gt;" style="text;html=1;strokeColor=none;fillColor=none;align=center;verticalAlign=middle;whiteSpace=wrap;rounded=0;" vertex="1" parent="1">
          <mxGeometry x="896" y="420" width="270" height="30" as="geometry" />
        </mxCell>
        <mxCell id="MNOEPfRIzQuodUUQOCgr-47" value="" style="endArrow=classic;html=1;rounded=0;entryX=1;entryY=0.5;entryDx=0;entryDy=0;exitX=0;exitY=0.5;exitDx=0;exitDy=0;strokeWidth=1;" edge="1" parent="1" source="MNOEPfRIzQuodUUQOCgr-7" target="MNOEPfRIzQuodUUQOCgr-39">
          <mxGeometry width="50" height="50" relative="1" as="geometry">
            <mxPoint x="570" y="590" as="sourcePoint" />
            <mxPoint x="750" y="590" as="targetPoint" />
          </mxGeometry>
        </mxCell>
        <mxCell id="AvlIzEefCSKB6KWWn0vl-1" value="" style="triangle;whiteSpace=wrap;html=1;rotation=-90;strokeColor=#000000;fillColor=#dae8fc;" vertex="1" parent="1">
          <mxGeometry x="709.07" y="495.2" width="42.92" height="81.03" as="geometry" />
        </mxCell>
        <mxCell id="idJGbWFFebsAsp7hMpdy-3" value="&lt;font style=&quot;font-size: 22px;&quot;&gt;Optical photons&lt;/font&gt;" style="text;html=1;strokeColor=none;fillColor=none;align=center;verticalAlign=middle;whiteSpace=wrap;rounded=0;" vertex="1" parent="1">
          <mxGeometry x="395" y="203" width="270" height="30" as="geometry" />
        </mxCell>
        <mxCell id="idJGbWFFebsAsp7hMpdy-5" value="&lt;font style=&quot;font-size: 21px;&quot;&gt;β&lt;/font&gt;" style="text;html=1;strokeColor=none;fillColor=none;align=center;verticalAlign=middle;whiteSpace=wrap;rounded=0;" vertex="1" parent="1">
          <mxGeometry x="514" y="304" width="30" height="30" as="geometry" />
        </mxCell>
      </root>
    </mxGraphModel>
  </diagram>
</mxfile>
